Flexion_states
version=1
nRows=14
nColumns=41
inDegrees=yes

# SIMM Motion File Header:
name Flexion_states
datacolumns 41
datarows 14
otherdata 1
range 0.00000000 1.58221744
endheader
time	/jointset/ground_thorax/thorax_tilt/value	/jointset/ground_thorax/thorax_tilt/speed	/jointset/ground_thorax/thorax_list/value	/jointset/ground_thorax/thorax_list/speed	/jointset/ground_thorax/thorax_rotation/value	/jointset/ground_thorax/thorax_rotation/speed	/jointset/ground_thorax/thorax_tx/value	/jointset/ground_thorax/thorax_tx/speed	/jointset/ground_thorax/thorax_ty/value	/jointset/ground_thorax/thorax_ty/speed	/jointset/ground_thorax/thorax_tz/value	/jointset/ground_thorax/thorax_tz/speed	/jointset/sternoclavicular/sternoclavicular_r2/value	/jointset/sternoclavicular/sternoclavicular_r2/speed	/jointset/sternoclavicular/sternoclavicular_r3/value	/jointset/sternoclavicular/sternoclavicular_r3/speed	/jointset/unrotscap/unrotscap_r3/value	/jointset/unrotscap/unrotscap_r3/speed	/jointset/unrotscap/unrotscap_r2/value	/jointset/unrotscap/unrotscap_r2/speed	/jointset/acromioclavicular/acromioclavicular_r2/value	/jointset/acromioclavicular/acromioclavicular_r2/speed	/jointset/acromioclavicular/acromioclavicular_r3/value	/jointset/acromioclavicular/acromioclavicular_r3/speed	/jointset/acromioclavicular/acromioclavicular_r1/value	/jointset/acromioclavicular/acromioclavicular_r1/speed	/jointset/unrothum/unrothum_r1/value	/jointset/unrothum/unrothum_r1/speed	/jointset/unrothum/unrothum_r3/value	/jointset/unrothum/unrothum_r3/speed	/jointset/unrothum/unrothum_r2/value	/jointset/unrothum/unrothum_r2/speed	/jointset/shoulder0/elv_angle/value	/jointset/shoulder0/elv_angle/speed	/jointset/shoulder1/shoulder_elv/value	/jointset/shoulder1/shoulder_elv/speed	/jointset/shoulder1/shoulder1_r2/value	/jointset/shoulder1/shoulder1_r2/speed	/jointset/shoulder2/shoulder_rot/value	/jointset/shoulder2/shoulder_rot/speed
      0.00000000	      0.00000000	      0.00000000	      0.00000000	      0.00000000	      0.00000000	      0.00000000	      0.00000000	      0.00000000	      0.00000000	      0.00000000	      0.00000000	      0.00000000	      0.00000000	      0.00000000	     -0.00000000	      0.00000000	      0.00000000	      0.00000000	     -0.00000000	      0.00000000	      0.00000000	      0.00000000	     -0.00000000	      0.00000000	     -0.00000000	      0.00000000	      0.00000000	      0.00000000	      0.00000000	      0.00000000	     -0.00000000	      0.00000000	     90.00000000	      0.00000000	     -0.00000000	      0.00000000	    -90.00000000	      0.00000000	      0.00000000	      0.00000000
      0.01000000	      0.00000000	      0.00000000	      0.00000000	     -0.00000000	      0.00000000	      0.00000000	     -0.00000000	     -0.00000000	     -0.00000000	     -0.00000000	     -0.00000000	     -0.00000000	     -0.00065555	     -0.13108835	      0.00027766	      0.05552279	     -0.00027766	     -0.05552279	      0.00065555	      0.13108835	     -0.00013273	     -0.02654252	      0.00107269	      0.21450445	      0.00048218	      0.09642044	     -0.00048218	     -0.09642044	     -0.00107269	     -0.21450445	      0.00013273	      0.02654252	     90.00000000	     -0.00000000	      0.00270889	      0.54169253	    -90.00000000	      0.00000000	      0.00000000	      0.00000000
      0.06000000	      0.00000000	      0.00000000	     -0.00000000	      0.00000000	     -0.00000000	     -0.00000000	      0.00000000	      0.00000000	     -0.00000000	     -0.00000000	     -0.00000000	     -0.00000000	     -0.02356236	     -0.78466609	      0.00997990	      0.33234726	     -0.00997990	     -0.33234726	      0.02356236	      0.78466609	     -0.00477086	     -0.15887770	      0.03855592	      1.28397654	      0.01733101	      0.57715160	     -0.01733101	     -0.57715160	     -0.03855592	     -1.28397654	      0.00477086	      0.15887770	     90.00000000	      0.00000000	      0.09736606	      3.24245257	    -90.00000000	      0.00000000	      0.00000000	      0.00000000
      0.31000000	     -0.00000000	     -0.00000000	      0.00000000	      0.00000000	     -0.00000000	     -0.00000000	      0.00000000	      0.00000000	      0.00000000	      0.00000000	      0.00000000	      0.00000000	     -0.62397942	     -4.00553743	      0.26428802	      1.69655527	     -0.26428802	     -1.69655527	      0.62397942	      4.00553743	     -0.12634217	     -0.81103361	      1.02103932	      6.55440084	      0.45896047	      2.94622436	     -0.45896047	     -2.94622436	     -1.02103932	     -6.55440084	      0.12634217	      0.81103361	     90.00000000	      0.00000000	      2.57845176	     16.55196430	    -90.00000000	     -0.00000000	      0.00000000	      0.00000000
      0.81788342	     -0.00000000	     -0.00000000	      0.00000000	      0.00000000	     -0.00000000	      0.00000000	      0.00000000	     -0.00000000	      0.00000000	      0.00000000	     -0.00000000	     -0.00000000	     -4.27105899	    -10.29863664	      1.80901758	      4.36201297	     -1.80901758	     -4.36201297	      4.27105899	     10.29863664	     -0.86479591	     -2.08524837	      6.98888304	     16.85201894	      3.14152551	      7.57503697	     -3.14152551	     -7.57503697	     -6.98888304	    -16.85201894	      0.86479591	      2.08524837	     90.00000000	     -0.00000000	     17.64917122	     42.55675277	    -90.00000000	      0.00000000	      0.00000000	      0.00000000
      0.91878834	     -0.00000000	     -0.00000000	      0.00000000	      0.00000000	     -0.00000000	      0.00000000	      0.00000000	     -0.00000000	      0.00000000	      0.00000000	     -0.00000000	     -0.00000000	     -5.37130848	    -11.50655257	      2.27503097	      4.87362875	     -2.27503097	     -4.87362875	      5.37130848	     11.50655257	     -1.08757233	     -2.32982490	      8.78925973	     18.82857399	      3.95080065	      8.46350485	     -3.95080065	     -8.46350485	     -8.78925973	    -18.82857399	      1.08757233	      2.32982490	     90.00000000	      0.00000000	     22.19569980	     47.54818819	    -90.00000000	      0.00000000	      0.00000000	      0.00000000
      1.05233580	     -0.00000000	     -0.00000000	      0.00000000	      0.00000000	     -0.00000000	      0.00000000	     -0.00000000	     -0.00000000	      0.00000000	      0.00000000	     -0.00000000	     -0.00000000	     -7.01348267	    -13.08206983	      2.97057790	      5.54094298	     -2.97057790	     -5.54094298	      7.01348267	     13.08206983	     -1.42007664	     -2.64883264	     11.47640673	     21.40664793	      5.15868191	      9.62235742	     -5.15868191	     -9.62235742	    -11.47640673	    -21.40664793	      1.42007664	      2.64883264	     90.00000000	      0.00000000	     28.98160781	     54.05865176	    -90.00000000	      0.00000000	      0.00000000	      0.00000000
      1.14799322	     -0.00000000	     -0.00000000	      0.00000000	      0.00000000	     -0.00000000	      0.00000000	     -0.00000000	     -0.00000000	      0.00000000	      0.00000000	     -0.00000000	     -0.00000000	     -8.31815219	    -14.19328362	      3.52317390	      6.01160032	     -3.52317390	     -6.01160032	      8.31815219	     14.19328362	     -1.68424365	     -2.87382910	     13.61128305	     23.22496588	      6.11831572	     10.43969721	     -6.11831572	    -10.43969721	    -13.61128305	    -23.22496588	      1.68424365	      2.87382910	     90.00000000	     -0.00000000	     34.37285525	     58.65048777	    -90.00000000	      0.00000000	      0.00000000	      0.00000000
      1.25202315	     -0.00000000	     -0.00000000	      0.00000000	      0.00000000	     -0.00000000	     -0.00000000	     -0.00000000	     -0.00000000	      0.00000000	      0.00000000	     -0.00000000	     -0.00000000	     -9.85665203	    -15.37939410	      4.17480930	      6.51398034	     -4.17480930	     -6.51398034	      9.85665203	     15.37939410	     -1.99575617	     -3.11399049	     16.12878410	     25.16583990	      7.24994057	     11.31212636	     -7.24994057	    -11.31212636	    -16.12878410	    -25.16583990	      1.99575617	      3.11399049	     90.00000000	      0.00000000	     40.73035282	     63.55181716	    -90.00000000	      0.00000000	      0.00000000	      0.00000000
      1.33593707	     -0.00000000	     -0.00000000	      0.00000000	      0.00000000	     -0.00000000	     -0.00000000	     -0.00000000	     -0.00000000	      0.00000000	      0.00000000	     -0.00000000	     -0.00000000	    -11.18605245	    -16.29395938	      4.73788013	      6.90134672	     -4.73788013	     -6.90134672	     11.18605245	     16.29395938	     -2.26493064	     -3.29916993	     18.30412845	     26.66237502	      8.22776489	     11.98482373	     -8.22776489	    -11.98482373	    -18.30412845	    -26.66237502	      2.26493064	      3.29916993	     90.00000000	      0.00000000	     46.22379500	     67.33104832	    -90.00000000	      0.00000000	      0.00000000	      0.00000000
      1.40539726	     -0.00000000	     -0.00000000	      0.00000000	      0.00000000	     -0.00000000	     -0.00000000	     -0.00000000	     -0.00000000	      0.00000000	      0.00000000	     -0.00000000	     -0.00000000	    -12.34158876	    -16.95142677	      5.22731039	      7.17981866	     -5.22731039	     -7.17981866	     12.34158876	     16.95142677	     -2.49890144	     -3.43229268	     20.19497287	     27.73821187	      9.07770556	     12.46841587	     -9.07770556	    -12.46841587	    -20.19497287	    -27.73821187	      2.49890144	      3.43229268	     90.00000000	      0.00000000	     50.99878362	     70.04788143	    -90.00000000	      0.00000000	      0.00000000	      0.00000000
      1.46433732	     -0.00000000	     -0.00000000	      0.00000000	      0.00000000	     -0.00000000	     -0.00000000	     -0.00000000	     -0.00000000	      0.00000000	      0.00000000	     -0.00000000	     -0.00000000	    -13.35243908	    -17.29863997	      5.65545854	      7.32688167	     -5.65545854	     -7.32688167	     13.35243908	     17.29863997	     -2.70357649	     -3.50259575	     21.84906257	     28.30636896	      9.82122423	     12.72380432	     -9.82122423	    -12.72380432	    -21.84906257	    -28.30636896	      2.70357649	      3.50259575	     90.00000000	      0.00000000	     55.17589063	     71.48266031	    -90.00000000	      0.00000000	      0.00000000	      0.00000000
      1.52327738	     -0.00000000	     -0.00000000	      0.00000000	      0.00000000	     -0.00000000	     -0.00000000	     -0.00000000	     -0.00000000	      0.00000000	      0.00000000	     -0.00000000	     -0.00000000	    -14.37166936	    -17.17396903	      6.08715604	      7.27407698	     -6.08715604	     -7.27407698	     14.37166936	     17.17396903	     -2.90994830	     -3.47735261	     23.51686470	     28.10236555	     10.57090668	     12.63210412	    -10.57090667	    -12.63210412	    -23.51686470	    -28.10236555	      2.90994830	      3.47735261	     90.00000000	      0.00000000	     59.38762591	     70.96748625	    -90.00000000	      0.00000000	      0.00000000	      0.00000000
      1.58221744	     -0.00000000	     -0.00000000	      0.00000000	      0.00000000	     -0.00000000	     -0.00000000	     -0.00000000	     -0.00000000	      0.00000000	      0.00000000	     -0.00000000	     -0.00000000	    -15.35833568	    -16.09694356	      6.50506099	      6.81790018	     -6.50506099	     -6.81790018	     15.35833568	     16.09694356	     -3.10972662	     -3.25927854	     25.13138126	     26.33999114	     11.29663709	     11.83991113	    -11.29663709	    -11.83991113	    -25.13138126	    -26.33999114	      3.10972662	      3.25927854	     90.00000000	      0.00000000	     63.46479805	     66.51692563	    -90.00000000	      0.00000000	      0.00000000	      0.00000000
